<?xml version="1.0" standalone="no"?>
<!DOCTYPE svg PUBLIC "-//W3C//DTD SVG 20010904//EN"
 "http://www.w3.org/TR/2001/REC-SVG-20010904/DTD/svg10.dtd">
<svg version="1.0" xmlns="http://www.w3.org/2000/svg"
 width="512.000000pt" height="512.000000pt" viewBox="0 0 512.000000 512.000000"
 preserveAspectRatio="xMidYMid meet">

<g transform="translate(0.000000,512.000000) scale(0.100000,-0.100000)"
fill="#000000" stroke="none">
<path d="M2325 5109 c-318 -31 -640 -124 -923 -268 -242 -124 -420 -252 -618
-444 -222 -215 -380 -431 -514 -702 -94 -191 -139 -311 -185 -490 -59 -228
-78 -389 -78 -640 -1 -237 13 -364 59 -574 165 -741 679 -1389 1369 -1726 308
-150 413 -169 465 -83 18 31 20 51 20 274 l0 241 -67 -13 c-106 -21 -295 -18
-387 6 -109 28 -209 83 -283 157 -52 51 -72 83 -127 198 -93 193 -159 283
-256 348 -68 46 -120 98 -120 123 0 32 46 47 128 42 55 -3 85 -11 146 -41 94
-47 162 -112 243 -232 34 -49 78 -107 99 -127 141 -134 338 -171 546 -101 l82
28 26 90 c31 107 58 162 106 215 l35 39 -48 6 c-363 51 -608 152 -786 324
-157 151 -247 327 -299 585 -30 147 -33 481 -5 588 39 155 126 327 209 414
l29 31 -23 74 c-19 63 -23 96 -23 219 0 146 6 189 48 322 19 62 23 67 51 70
135 13 355 -65 588 -209 l89 -55 87 21 c160 37 285 52 487 58 226 6 398 -9
591 -53 l114 -25 103 62 c211 129 399 199 532 199 l72 0 26 -87 c15 -49 32
-119 38 -157 16 -93 6 -283 -19 -367 l-19 -67 54 -68 c67 -86 146 -244 174
-349 16 -60 22 -121 26 -242 14 -423 -90 -736 -315 -955 -174 -170 -396 -269
-712 -318 -41 -6 -88 -13 -103 -16 l-28 -6 35 -39 c43 -47 88 -134 112 -215
15 -51 18 -122 23 -514 5 -417 8 -458 24 -483 40 -62 110 -62 265 -1 916 362
1537 1194 1622 2174 80 918 -358 1823 -1133 2340 -479 320 -1083 473 -1652
419z"/>
</g>
</svg>
