<?xml version="1.0" standalone="no"?>
<!DOCTYPE svg PUBLIC "-//W3C//DTD SVG 20010904//EN"
 "http://www.w3.org/TR/2001/REC-SVG-20010904/DTD/svg10.dtd">
<svg version="1.0" xmlns="http://www.w3.org/2000/svg"
 width="512.000000pt" height="512.000000pt" viewBox="0 0 512.000000 512.000000"
 preserveAspectRatio="xMidYMid meet">

<g transform="translate(0.000000,512.000000) scale(0.100000,-0.100000)"
fill="#000000" stroke="none">
<path d="M2255 4633 c-487 -65 -970 -314 -1310 -675 -331 -352 -542 -807 -594
-1280 -14 -125 -14 -371 0 -496 55 -498 279 -962 639 -1322 337 -337 737 -542
1225 -627 142 -25 548 -25 690 0 799 139 1430 646 1724 1386 188 470 202 1025
39 1516 -236 713 -828 1263 -1562 1450 -72 18 -187 40 -254 49 -154 20 -446
19 -597 -1z m1061 -1237 c40 -15 103 -51 145 -83 l74 -56 82 21 c46 12 123 41
173 64 49 24 90 40 90 36 0 -5 -13 -34 -29 -66 -36 -71 -92 -140 -154 -188
-26 -20 -46 -38 -44 -40 6 -6 146 27 217 51 41 14 75 24 77 22 10 -11 -122
-161 -197 -222 l-67 -55 -6 -142 c-22 -512 -290 -991 -712 -1270 -148 -98
-278 -156 -450 -201 -402 -104 -795 -61 -1158 125 l-122 63 160 6 c172 7 245
22 390 78 81 31 231 117 255 146 11 13 8 15 -22 15 -51 0 -141 26 -211 61
-103 53 -232 197 -261 296 -7 21 -5 22 86 22 51 0 106 3 121 6 25 7 22 9 -39
31 -173 60 -312 212 -358 390 -9 34 -16 80 -16 103 l0 42 28 -14 c38 -20 119
-44 171 -52 l44 -7 -69 69 c-133 132 -192 307 -165 483 10 65 43 161 62 183 3
5 51 -36 105 -90 110 -110 183 -168 306 -245 195 -121 442 -205 665 -226 l81
-8 -5 91 c-15 272 154 508 417 580 87 24 247 15 336 -19z"/>
</g>
</svg>
